<?xml version="1.0" standalone="no"?>
<!DOCTYPE svg PUBLIC "-//W3C//DTD SVG 20010904//EN"
 "http://www.w3.org/TR/2001/REC-SVG-20010904/DTD/svg10.dtd">
<svg version="1.0" xmlns="http://www.w3.org/2000/svg"
 width="500.000000pt" height="500.000000pt" viewBox="0 0 500.000000 500.000000"
 preserveAspectRatio="xMidYMid meet">

<g transform="translate(0.000000,500.000000) scale(0.100000,-0.100000)"
fill="#000000" stroke="none">
<path d="M2395 3430 c-214 -34 -414 -149 -539 -313 -207 -271 -230 -610 -62
-911 47 -83 144 -192 374 -419 144 -142 203 -193 244 -212 134 -63 293 -6 362
128 24 46 30 71 30 120 -1 110 -18 134 -283 402 -132 132 -247 256 -257 275
-28 52 -26 181 3 236 50 95 148 149 255 142 148 -10 248 -116 248 -263 0 -64
-14 -105 -58 -172 -27 -42 -33 -57 -27 -82 15 -69 100 -93 150 -43 109 107
143 282 89 453 -22 70 -24 85 -13 110 16 41 46 59 95 59 35 0 47 -5 68 -30 62
-74 93 -287 62 -429 -20 -97 -60 -179 -129 -270 -63 -82 -70 -112 -37 -154 24
-30 78 -44 108 -28 27 14 112 123 151 192 71 127 108 292 98 442 -8 122 -29
203 -83 313 -68 139 -125 187 -224 187 -71 0 -108 -19 -196 -105 l-71 -68 -67
31 c-119 56 -265 51 -390 -13 -53 -27 -142 -112 -173 -166 -77 -131 -82 -295
-12 -435 13 -26 114 -136 260 -282 131 -132 243 -253 249 -269 13 -36 -2 -89
-33 -111 -12 -8 -39 -15 -60 -15 -36 0 -50 11 -251 206 -244 235 -301 301
-351 405 -172 363 28 794 415 894 75 19 192 24 301 11 71 -8 77 -7 102 15 65
57 32 138 -65 158 -74 16 -214 21 -283 11z"/>
</g>
</svg>
